<svg width="48.00000000000001" height="48.00000000000001" xmlns="http://www.w3.org/2000/svg">

 <g>
  <title>background</title>
  <rect fill="none" id="canvas_background" height="402" width="582" y="-1" x="-1"/>
 </g>
 <g>
  <title>Layer 1</title>
  <path id="svg_2" fill="#ff5656" d="m30.35023,33.95967l-5.96166,-8.79194c-0.19733,-0.29102 -0.62609,-0.29102 -0.82342,0l-5.96166,8.79194c-0.27508,0.40568 -0.90915,0.21098 -0.90915,-0.27917l0,-19.36238c0,-0.27473 0.22271,-0.49744 0.49744,-0.49744l13.57016,0c0.27473,0 0.49744,0.22271 0.49744,0.49744l0,19.36238c0,0.49015 -0.63407,0.68485 -0.90915,0.27917z"/>
  <path id="svg_3" fill="#ff7272" d="m31.26087,14.31537l0,19.36999c0,0.48999 -0.64001,0.67999 -0.90997,0.27002l-5.96002,-8.78998c-0.20001,-0.29004 -0.63,-0.29004 -0.83002,0l-2.95001,4.34998c-0.60999,0.38 -1.23999,0.45001 -1.67999,-0.28003c-1.01996,-1.71997 -1.26001,-12.89996 -1.29999,-15.40997l13.13,0c0.28003,0 0.5,0.21997 0.5,0.48999z"/>
  <path id="svg_4" fill="#ff5656" d="m31.26435,14.31538c0,3.21014 -0.00001,6.42029 -0.00004,9.63043c-0.00001,1.07817 -0.00002,2.15633 -0.00004,3.2345c-0.00001,0.58061 0.28127,4.56199 -0.62246,4.4934c-0.14117,-0.01071 -0.263,-0.10806 -0.36977,-0.20877c-1.22749,-1.15792 -1.69857,-3.23029 -2.43362,-4.75087c-0.58326,-1.20658 -1.17426,-2.42124 -1.86804,-3.55865c-0.37817,-0.62 -0.99609,-1.62 -1.78002,-1.63c-1.18056,-0.01001 -1.68782,1.5 -2.2504,2.35999c-0.1937,0.29999 -0.47961,0.72003 -0.85773,0.70001c-0.51648,-0.02002 -0.82086,-0.76001 -0.99609,-1.17999c-0.88542,-2.11005 -0.71019,-6.76001 -0.51648,-9.58002l11.23354,0c0.25827,-0.00003 0.46115,0.21994 0.46115,0.48997z"/>
  <line id="svg_7" fill="none" stroke="#ffffff" stroke-width="0.7" stroke-linecap="round" stroke-linejoin="round" stroke-miterlimit="10" y2="16.12699" y1="16.12699" x2="24.17574" x1="19.14075"/>
  <line id="svg_8" fill="none" stroke="#ffffff" stroke-width="0.7" stroke-linecap="round" stroke-linejoin="round" stroke-miterlimit="10" y2="16.12699" y1="16.12699" x2="26.56736" x1="25.5184"/>
 </g>
</svg>